<?xml version="1.0" encoding="UTF-8"?>
<svg width="438px" height="171px" viewBox="0 0 438 171" version="1.1" xmlns="http://www.w3.org/2000/svg" xmlns:xlink="http://www.w3.org/1999/xlink">
    <!-- Generator: Sketch 57.1 (83088) - https://sketch.com -->
    <title>Group 104</title>
    <desc>Created with Sketch.</desc>
    <defs>
        <polygon id="path-1" points="0 0.219 124.107631 0.219 124.107631 171 0 171"></polygon>
        <polygon id="path-3" points="0 171.781 437.307 171.781 437.307 1 0 1"></polygon>
    </defs>
    <g id="Page-1" stroke="none" stroke-width="1" fill="none" fill-rule="evenodd">
        <g id="Artboard" transform="translate(-32.000000, -28.000000)">
            <g id="Group-104" transform="translate(32.000000, 27.000000)">
                <g id="Group-3" transform="translate(0.000000, 0.781000)">
                    <mask id="mask-2" fill="white">
                        <use xlink:href="#path-1"></use>
                    </mask>
                    <g id="Clip-2"></g>
                    <path d="M14.8559,155.4848 C14.8559,155.4848 17.8639,152.3508 19.2359,151.3058 C20.4229,150.4058 21.6509,149.7978 21.7789,149.6088 C22.1379,149.0718 22.6239,148.2558 22.6239,148.2558 L25.8449,137.1288 C24.4919,136.6208 23.2439,135.7718 23.2439,135.7718 L13.9799,154.7518 L14.8559,155.4848 Z M78.8699,7.8148 C78.8699,7.8148 79.3749,12.4538 76.0129,13.4158 C76.0129,13.4158 76.6919,14.3738 78.6039,14.3738 C80.5209,14.3738 81.8439,13.5498 82.6849,12.9528 C82.6849,12.9528 84.1749,14.3738 83.4049,16.2948 C82.5049,18.5478 81.2219,22.6298 71.2899,25.6528 C71.9169,27.8278 73.7859,31.7578 75.6969,36.0828 C78.1729,41.6858 80.6999,48.0568 81.0059,51.9978 C81.0659,52.8078 81.4919,54.8418 81.0429,57.7318 C80.7269,59.7448 79.8679,62.2478 78.6629,64.7298 C76.2689,69.6578 71.6009,75.0758 62.5959,79.2358 L62.7389,79.8358 C62.7389,79.8358 75.0379,77.1398 96.2719,74.6938 C96.2719,74.6938 95.3769,71.1008 99.3289,69.7828 C99.3289,69.7828 97.5249,68.1738 97.5249,65.2948 C97.5249,62.4288 100.6409,61.8368 102.4389,62.0158 C102.4389,62.0158 108.8419,62.1858 108.8419,68.6488 C108.8419,68.6488 108.7799,69.4248 108.3569,70.4998 C107.9439,71.5878 107.2919,72.4738 107.2919,73.1868 C107.2919,73.9178 108.5349,73.8568 108.5349,73.8568 C108.5349,73.8568 124.2309,75.6198 124.107631,84.8548 C124.107631,84.8548 123.9039,87.4818 121.4569,88.4898 C121.4569,88.4898 122.5929,93.8338 116.1909,93.7668 C116.1909,93.7668 115.3539,96.5848 111.6499,96.5848 C111.6499,96.5848 110.0249,96.5848 108.4729,95.1518 C106.9159,93.7158 99.7049,85.5348 94.7239,85.5348 C94.7239,85.5348 94.5399,89.3448 91.0749,95.2708 C91.0749,95.2708 76.6559,95.0878 69.7159,97.1238 C69.7159,97.1238 72.8289,108.2508 77.1959,115.9668 C77.1959,115.9668 75.8139,117.6988 70.0739,119.1378 C70.0739,119.1378 72.0469,130.9248 74.7439,136.3668 C74.7439,136.3668 72.2259,137.0898 71.0869,137.4398 L73.3579,145.8178 C73.3579,145.8178 77.3979,145.0758 77.2519,148.6238 C77.2519,148.6238 78.7799,148.8198 80.1839,149.4618 C80.1839,149.4618 82.6309,149.2548 83.3199,150.8148 C83.3199,150.8148 89.0559,152.2628 89.0939,156.5208 C89.1409,161.0908 84.0489,166.6438 79.0359,167.0448 C79.0359,167.0448 73.6609,167.8398 67.8009,166.3428 C61.9409,164.8438 51.1689,161.9668 51.1689,157.2978 C51.1689,154.0718 55.2459,151.1388 55.2459,151.1388 L55.2509,140.3048 L51.4719,140.1318 C51.4719,140.1318 50.6339,137.6188 50.6339,133.6728 L47.2749,133.8548 L46.8599,139.9598 C46.8599,139.9598 44.4159,140.3158 42.0769,140.4978 C42.0769,140.4978 40.8849,145.2818 40.2809,153.7088 C40.2809,153.7088 47.1629,171.0008 31.5519,171.0008 C31.5519,171.0008 16.4169,170.5838 13.4809,160.5388 C13.4809,160.5388 12.7089,167.6568 6.8489,166.3428 C1.5069,165.1398 -0.3391,161.0718 0.5029,159.1618 C1.3389,157.2448 3.1319,154.7968 4.9919,152.5098 C4.9919,152.5098 5.5289,151.9818 7.5549,152.6408 C7.5549,152.6408 12.4059,141.3378 15.2779,126.5648 C15.2779,126.5648 15.2779,126.0808 14.6789,125.6628 C14.0799,125.2408 12.4659,124.2208 12.1089,122.7268 C12.1089,122.7268 11.6319,122.1868 11.3309,121.7118 C11.0299,121.2298 8.8169,118.7148 10.7279,114.5888 C10.7279,114.5888 12.4059,110.5208 16.8329,111.1208 L17.2299,108.3358 C17.2299,108.3358 16.5229,107.6708 16.4599,107.0868 C16.3979,106.4978 17.3719,105.3118 17.3719,105.3118 C17.3719,105.3118 18.4169,98.9788 18.5699,94.0128 C18.5699,94.0128 14.8559,92.8228 15.9899,88.3308 C16.5959,85.9508 18.1499,84.6238 20.3099,84.5008 C22.0159,84.4028 25.5429,84.6518 32.2729,85.5538 C32.2729,85.5538 35.4349,81.3918 37.0549,80.4328 C37.0549,80.4328 31.1889,79.5328 29.1609,78.3448 C29.1609,78.3448 18.5019,83.6648 13.8359,72.0608 C13.8359,72.0608 0.7999,64.3418 0.7999,52.0748 C0.7999,49.6888 0.6229,38.4368 8.7569,29.7088 C8.7569,29.7088 7.6779,29.0568 6.8489,28.3908 C6.0039,27.7388 4.6339,27.0138 3.0129,27.0138 C1.4049,27.0138 0.6759,27.4338 0.3859,27.7858 C0.3859,27.7858 -0.0961,27.6708 0.0169,27.0738 C0.1369,26.4738 2.1129,21.3308 9.8919,21.7508 C9.8919,21.7508 9.8319,14.3988 17.0179,11.2768 C17.0179,11.2768 17.9819,11.0358 17.7339,12.1128 C17.4909,13.2008 16.8969,15.4098 17.9179,15.4098 C17.9179,15.4098 28.8549,0.2188 48.7169,0.2188 C52.4319,0.2188 60.1459,2.8418 64.4529,5.9568 C68.7649,9.0768 70.8549,10.5078 72.4679,10.5078 C75.0909,10.5078 78.8699,7.8148 78.8699,7.8148 L78.8699,7.8148 Z" id="Fill-1" fill="#0B4697" mask="url(#mask-2)"></path>
                </g>
                <path d="M24.2509,150.3703 C24.6619,150.1933 22.8179,151.9843 25.0309,152.9463 C26.8719,153.7413 32.0289,155.6413 32.0289,155.6413 C32.0289,155.6413 34.6029,155.9293 34.3599,153.5413 L39.2879,154.9703 C39.2879,154.9703 41.4069,161.8593 39.9079,165.8703 C38.4179,169.8743 32.7989,172.1423 23.8929,168.7313 C23.8929,168.7313 16.5769,166.5223 14.9749,161.8063 C14.2099,159.5483 14.9709,158.4603 15.4659,157.6563 C16.5719,155.8383 19.1499,152.5563 24.2509,150.3703 M27.5369,154.7393 C27.5369,154.7393 22.4699,152.1033 20.8969,155.3373 C19.7619,157.6763 25.0949,159.6993 25.0949,159.6993 C25.0949,159.6993 31.0679,162.6313 32.3189,159.6363 C33.5779,156.6543 27.5369,154.7393 27.5369,154.7393" id="Fill-4" fill="#FFFFFF"></path>
                <path d="M42.0727,48.9811 C42.0897,48.0681 42.6527,47.3391 43.3307,47.3461 C44.0167,47.3601 44.5587,48.1091 44.5567055,49.0241 C44.5327,49.9401 43.9687,50.6791 43.2927,50.6591 C42.6057,50.6531 42.0617,49.9001 42.0727,48.9811" id="Fill-6" fill="#FFFFFF"></path>
                <path d="M64.0546,43.6037 C64.0546,42.6607 64.5406,41.8977 65.1356,41.8977 C65.7276,41.8977 66.2146,42.6607 66.2146,43.6037 C66.2146,44.5337 65.7276,45.3007 65.1356,45.3007 C64.5406,45.3007 64.0546,44.5337 64.0546,43.6037" id="Fill-8" fill="#FFFFFF"></path>
                <path d="M102.2421,63.9587 C101.9941,63.9587 98.8541,63.8327 98.8541,66.4207 C98.8541,69.0077 100.3531,70.0397 100.3531,70.0397 C100.3531,70.0397 101.1931,70.4857 101.1931,70.8587 C101.1931,71.2087 100.5751,71.6377 100.1101,71.8157 C99.6341,71.9867 97.4721,72.5897 97.4721,74.8717 C97.4721,75.5777 97.6491,76.0277 97.6491,76.0277 C97.6491,76.0277 97.8681,76.8457 96.9501,76.8457 L95.3851,76.8457 C95.3851,76.8457 94.9671,76.9227 95.2821,77.8777 C95.5781,78.7927 96.1781,81.8447 95.2181,84.7147 C95.2181,84.7147 94.7601,84.7487 96.1311,85.2407 C97.7431,85.8257 101.5891,86.6717 109.4531,95.0667 C109.4531,95.0667 110.4901,96.0287 111.9741,96.0287 C113.4661,96.0287 115.3841,95.2797 115.3841,93.1247 C115.3841,90.9497 112.3961,88.4037 112.3961,88.4037 C112.3961,88.4037 111.8761,88.0067 112.2981,87.5077 C112.7201,87.0217 113.2491,87.5807 113.2491,87.5807 C113.2491,87.5807 116.3281,89.5867 116.6521,93.5257 C116.6521,93.5257 120.6241,92.8977 120.6241,89.7847 C120.6241,86.6717 115.5961,83.6527 115.5961,83.6527 C115.5961,83.6527 114.9931,83.2067 115.3841,82.5947 C115.7761,81.9787 116.4091,82.5947 116.4091,82.5947 C116.4091,82.5947 119.3901,84.3547 121.3701,87.9767 C121.3701,87.9767 122.9681,86.6717 122.9681,85.2817 C122.9681,83.8957 121.4301,81.0297 118.9641,79.4287 C116.4731,77.8317 115.1941,76.7827 107.5381,75.6077 C107.5381,75.6077 105.9991,75.4287 105.9991,74.4307 C105.9991,73.2617 106.2191,72.8777 106.6731,72.2127 C107.1381,71.5477 107.5381,70.2727 107.5381,69.3767 C107.5381,68.4877 107.2031,63.9587 102.2421,63.9587" id="Fill-10" fill="#FFFFFF"></path>
                <path d="M93.2885,77.0378 C94.1135,76.9398 96.5145,82.7678 89.6865,94.9748 C89.6865,94.9748 75.0185,94.9748 69.7225,96.4758 L72.0465,92.1178 C72.0465,92.1178 72.4685,91.3818 71.9955,91.0168 C71.5195,90.6718 71.0765,91.4358 71.0765,91.4358 L68.8675,95.0988 C68.8675,95.0988 67.0735,89.0468 66.8965,86.8998 C66.8965,86.8998 66.7175,86.0148 66.1335,86.1578 C65.5325,86.3228 65.8355,87.1988 65.8355,87.1988 C65.8355,87.1988 68.6965,102.6608 75.5905,116.3878 C75.5905,116.3878 70.5415,120.5328 54.7935,120.5328 C39.0445,120.5328 33.9485,116.7118 33.9485,116.7118 L44.5775,99.3338 C44.5775,99.3338 46.9815,99.7688 48.2375,99.8198 C49.7085,99.8748 52.4075,99.1668 52.9765,95.9688 C53.4635,93.2218 52.9645,91.6318 50.4605,90.7888 C47.9345,89.9468 46.7425,89.8338 46.7425,89.8338 C46.7425,89.8338 45.8425,88.7488 45.1915,89.7698 C44.5335,90.7888 39.0705,99.5528 30.7645,114.8078 C30.7645,114.8078 26.3085,113.7868 24.0245,112.2388 C21.7515,110.6778 19.5855,109.3958 18.4765,108.4188 C17.9945,107.9908 18.6235,106.9468 18.6235,106.9468 C18.6235,106.9468 27.4235,92.1008 38.4885,81.5198 C39.3475,80.6858 41.1815,78.8188 44.1195,78.8188 C47.0455,78.8188 48.7855,81.9378 48.7855,81.9378 C48.7855,81.9378 50.5765,87.9768 56.3715,87.9768 C60.0265,87.9768 64.2095,85.5798 64.2095,85.5798 C64.2095,85.5798 65.1615,84.5628 64.0905,84.0218 C64.0905,84.0218 63.2485,84.4458 63.1905,84.7488 C63.1905,84.7488 62.6555,84.0218 62.8395,81.6338 C62.8395,81.6338 75.9995,79.1258 93.2885,77.0378" id="Fill-12" fill="#FFFFFF"></path>
                <path d="M45.8999,90.8449 L41.6589,97.4879 C41.6589,97.4879 44.5329,98.0749 46.0259,98.1439 C47.5249,98.2009 50.3999,98.7469 51.3479,96.6469 C52.3079,94.5479 52.0689,92.1629 49.7979,91.5679 C47.5249,90.9689 45.8999,90.8449 45.8999,90.8449" id="Fill-14" fill="#FFFFFF"></path>
                <path d="M41.1279,98.715 C41.1279,98.715 42.2789,98.894 43.2519,99.077 L26.0949,128 L12.8749,154.936 C12.8749,154.936 10.8939,153.963 8.9149,153.711 C8.9149,153.711 13.1439,141.239 13.9799,138.248 C14.8219,135.261 16.1269,129.879 16.1269,128.984 C16.1269,128.984 18.0239,130.038 19.2229,130.142 C20.3979,130.245 22.8709,130.211 25.2639,125.719 C25.2639,125.719 25.2109,124.706 24.1949,124.348 C24.1949,124.348 25.3229,122.855 25.5129,121.953 L26.8199,122.429 L30.2359,115.916 C30.2359,115.916 31.4329,116.518 31.7889,115.727 C32.1469,114.961 41.1279,98.715 41.1279,98.715" id="Fill-16" fill="#FFFFFF"></path>
                <path d="M31.2319,87.3781 L25.4419,94.6141 L19.0459,93.5381 C19.0459,93.5381 16.1739,92.3421 17.3079,89.1111 C18.4469,85.8831 20.8099,86.2731 21.5849,86.3351 C22.3719,86.3931 31.2319,87.3781 31.2319,87.3781" id="Fill-18" fill="#FFFFFF"></path>
                <polygon id="Fill-20" fill="#FFFFFF" points="23.4106 95.5764 23.3526 97.6644 24.5346 95.7274"></polygon>
                <polygon id="Fill-22" fill="#FFFFFF" points="19.747 95.0432 22.195 95.3672 21.858 99.7002 18.867 104.0072"></polygon>
                <polygon id="Fill-24" fill="#FFFFFF" points="17.9775 109.5754 18.8135 110.0994 17.9175 111.5454"></polygon>
                <path d="M19.9414,110.8312 C19.9414,110.8312 22.9924,113.6392 26.5794,114.7712 L25.8094,116.3282 L26.2254,116.9802 L26.7074,116.3922 C26.7074,116.3922 27.1854,115.9162 27.8374,116.2682 C28.4894,116.6312 28.6794,116.9802 28.6794,116.9802 L26.5194,120.6352 L25.3234,120.2792 L22.8174,124.3482 C22.8174,124.3482 22.0924,125.1892 22.9924,125.8432 L23.4174,125.3052 L24.0164,125.7852 L23.0444,127.0182 C23.0444,127.0182 22.1954,128.4072 21.1894,128.6702 C20.4174,128.8682 19.4954,129.3102 18.3874,128.6502 C16.8684,127.7572 15.8114,127.3462 16.0014,124.4772 C16.0014,124.4772 16.1134,123.8102 15.5104,123.6952 C14.9214,123.5712 14.8684,123.9282 14.8684,123.9282 L14.8684,125.2452 C14.8684,125.2452 13.3614,124.2882 13.1944,122.9132 C13.0054,121.5352 13.1284,120.4002 12.3394,119.8632 C11.5694,119.3222 11.7464,120.9322 11.7464,120.9322 C11.7464,120.9322 10.6084,119.5602 11.2734,117.3532 C11.9194,115.1382 13.5454,112.7432 16.5894,112.9802 L17.6104,113.6962 C17.6104,113.6962 17.9184,113.8742 18.4464,113.0352 C18.9834,112.1972 19.9414,110.8312 19.9414,110.8312" id="Fill-26" fill="#FFFFFF"></path>
                <path d="M5.3457,154.5607 C5.3457,154.5607 9.8917,154.7987 13.4807,156.6547 L11.5107,162.7717 C11.5107,162.7717 11.2187,163.9337 10.6787,164.3697 C9.7827,165.0897 8.0327,166.2707 4.8167,165.0217 C1.1367,163.6147 1.1367,161.4987 1.5537,160.2507 C1.6717,159.9147 2.1667,159.1107 2.3497,158.8327 C3.3227,157.4217 5.3457,154.5607 5.3457,154.5607" id="Fill-28" fill="#FFFFFF"></path>
                <path d="M27.0634,138.3459 C27.0634,138.3459 33.4024,141.1609 40.8844,141.3939 L39.9224,146.9009 L25.9804,142.5939 L27.0634,138.3459 Z" id="Fill-30" fill="#FFFFFF"></path>
                <path d="M39.1538,153.6643 L34.4728,152.1033 C34.4728,152.1033 32.9248,150.2103 30.4728,149.3723 C28.0228,148.5433 26.9658,148.6733 25.1118,149.2083 C23.2488,149.7433 23.8878,148.5093 23.8878,148.5093 L25.3898,143.6083 L39.7998,148.2723 L39.1538,153.6643 Z" id="Fill-32" fill="#FFFFFF"></path>
                <path d="M29.8139,150.6154 C28.8329,150.1444 25.8669,149.4744 25.3229,150.7864 C24.8609,151.9284 27.9099,152.8204 30.9459,153.7284 C33.2089,154.3914 33.4019,153.9574 33.4019,153.9574 C33.4019,153.9574 33.6459,152.4024 29.8139,150.6154" id="Fill-34" fill="#FFFFFF"></path>
                <path d="M27.0317,155.7629 C27.0317,155.7629 23.1717,153.6439 22.2267,155.7049 C21.6067,157.0549 25.7327,158.5839 25.7327,158.5839 C25.7327,158.5839 30.4317,160.8249 31.2657,159.2639 C32.0637,157.7699 27.0317,155.7629 27.0317,155.7629" id="Fill-36" fill="#FFFFFF"></path>
                <polygon id="Fill-38" fill="#FFFFFF" points="56.2524 141.1271 56.3014 144.4751 57.3274 144.5681 57.3274 141.0971"></polygon>
                <polygon id="Fill-40" fill="#FFFFFF" points="56.4531 145.7814 56.5021 151.2044 57.5401 150.7944 57.3211 145.8924"></polygon>
                <path d="M57.6894,152.4025 C57.6894,152.4025 52.5404,154.3775 52.5404,158.0255 C52.5404,160.8385 57.5704,162.4585 57.5704,162.4585 L57.6894,152.4025 Z" id="Fill-42" fill="#FFFFFF"></path>
                <polygon id="Fill-44" fill="#FFFFFF" points="58.4487 140.9543 58.9477 163.1703 63.2487 164.3643 61.9627 140.2953"></polygon>
                <path d="M63.2124,140.0012 C63.2124,140.0012 66.3804,139.6252 69.9594,138.7022 L71.0464,142.1182 L63.4214,143.6792 L63.2124,140.0012 Z" id="Fill-46" fill="#FFFFFF"></path>
                <path d="M63.5512,144.8693 L71.3302,143.3063 L72.2252,146.8413 C72.2252,146.8413 68.6372,148.0293 67.8012,149.4743 L63.8562,150.3233 L63.5512,144.8693 Z" id="Fill-48" fill="#FFFFFF"></path>
                <path d="M64.018,151.6008 L67.063,151.1188 C67.063,151.1188 67.307,155.4878 71.14,154.2958 C74.966,153.0958 77.179,150.5798 77.179,150.5798 L78.501,150.9968 C78.501,150.9968 72.319,153.8798 75.441,157.1828 C75.441,157.1828 77.102,159.6218 81.358,156.2748 C84.009,154.1848 83.938,153.5878 83.793,153.1218 C83.793,153.1218 86.316,153.5758 87.534,155.7358 C87.913,156.4118 88.731,159.5478 85.529,162.8378 C83.674,164.7408 80.97,166.7188 76.702,166.7358 C68.577,166.7718 64.543,164.6648 64.543,164.6648 L64.018,151.6008 Z" id="Fill-50" fill="#FFFFFF"></path>
                <path d="M68.5214,152.0461 C68.2824,151.6261 67.7394,150.2421 69.4774,149.2981 C71.2064,148.3341 73.1834,147.5581 73.1834,147.5581 C73.1834,147.5581 75.1024,147.0121 75.9394,148.4621 C76.7734,149.8861 75.1024,150.7861 75.1024,150.7861 L73.1274,152.0461 L70.6684,153.1191 C70.6684,153.1191 69.5924,153.9571 68.5214,152.0461" id="Fill-52" fill="#FFFFFF"></path>
                <path d="M75.874,156.1154 C75.874,156.1154 75.038,154.9124 76.234,153.8944 C77.431,152.8884 77.963,152.2784 79.396,151.7504 C80.84,151.2044 81.629,151.5004 82.153,152.2174 C82.693,152.9464 82.039,154.1374 81.315,154.6694 C80.597,155.2194 78.492,156.5604 77.731,156.7104 C76.531,156.9534 75.874,156.1154 75.874,156.1154" id="Fill-54" fill="#FFFFFF"></path>
                <path d="M70.1718,26.9079 C68.2148,27.9569 65.1038,29.7519 61.7328,32.2089 C61.7328,32.2089 51.6788,38.9129 41.1048,38.9129 C33.1018,38.9129 30.1228,35.7629 30.0588,35.8159 C30.0498,35.8269 30.1338,35.9419 30.2898,36.1849 C30.2898,36.1849 34.7458,42.5039 34.7458,50.0069 C34.7458,62.8369 29.0588,68.2959 29.0588,68.2959 C29.0588,68.2959 26.3658,63.6559 21.7218,63.6559 C18.7138,63.6559 16.8388,65.3829 15.6688,67.3409 C15.1118,68.2719 14.2058,70.4879 14.6958,72.3959 C15.3128,74.7999 17.0988,78.4069 22.8548,79.2659 C22.8548,79.2659 27.2808,80.0049 30.8358,76.1769 C30.8358,76.1769 31.9678,76.3009 31.5008,77.2389 C31.5008,77.2389 30.1718,78.0509 31.5008,78.4879 C32.8268,78.9059 35.9078,79.6179 38.5308,79.8189 C38.5308,79.8189 40.7438,77.6649 43.7628,77.6649 C47.5498,77.6649 49.6568,80.9889 49.6568,81.4219 L51.7678,81.1829 C51.7678,81.1829 52.3608,81.3669 52.3608,81.8789 C52.3608,82.3879 51.8938,82.4709 51.8938,82.4709 L50.2478,82.5479 C50.2478,82.5479 52.3608,85.9549 53.7658,86.3749 C55.1698,86.8079 56.7338,86.9149 61.3488,85.5989 C61.3488,85.5989 61.8538,85.4479 61.7768,84.7739 C61.6938,84.1089 61.4978,82.9019 61.5808,80.9889 C61.5808,80.9889 61.4578,80.1219 60.8388,80.7099 C60.2228,81.2989 59.7048,80.6719 59.7048,80.4309 C59.7048,80.2069 59.5058,79.4179 60.5898,79.2659 C61.6938,79.1129 61.8538,79.0429 62.5198,78.7159 C63.1828,78.4069 73.4538,74.0799 77.6728,63.9219 C78.0638,62.9799 79.4648,59.7779 79.7528,56.8449 C79.9268,55.0579 79.7548,48.5569 75.9598,40.7459 C75.4308,39.6719 71.2638,30.6579 70.1718,26.9079 M63.7178,32.4749 C63.9068,32.7069 63.9498,32.7669 64.5128,32.5839 C66.1038,32.0789 68.8358,31.9159 70.4328,33.0909 C70.4328,33.0909 70.7688,33.3069 71.0098,33.0569 C71.2078,32.8499 71.1448,32.1699 70.9138,31.9439 C70.6838,31.7239 68.5678,30.0079 64.5648,31.2409 C64.5648,31.2409 63.2978,31.6609 63.7178,32.4749 M40.8398,54.6619 C40.8398,54.6619 41.5988,53.6869 45.0028,53.6869 C47.6398,53.6869 48.6998,54.4869 48.6998,54.4869 C48.6998,54.4869 49.5948,55.1179 50.0278,53.9199 C50.4608,52.7449 52.3928,45.1029 45.4908,45.1029 C38.0718,45.1029 41.7678,53.3359 41.7678,53.3359 C41.7678,53.3359 40.9938,53.5569 40.2978,54.0859 C40.2978,54.0859 39.7958,54.4469 39.9768,54.7729 C40.2518,55.2669 40.8398,54.6619 40.8398,54.6619 M74.0868,46.8339 C73.9408,47.0839 70.1018,46.7809 68.0308,48.4009 C66.7798,49.3779 65.7328,48.5889 65.7328,48.5889 C65.7328,48.5889 62.9818,46.9959 62.9818,43.8659 C62.9818,39.6059 66.7908,39.1149 67.3768,39.0069 C67.9498,38.9039 73.9678,38.9129 72.0188,46.5509 C72.0188,46.5509 73.7588,46.3799 74.0868,46.8339 M17.7238,69.9459 C17.7238,69.9459 19.0648,68.2149 22.7138,68.9419 C23.3588,69.0759 22.6998,69.6739 22.6998,69.6739 C22.6998,69.6739 21.4618,70.3489 21.1298,71.6669 C21.0688,71.8819 21.2658,72.2619 21.2658,72.2619 C21.2658,72.2619 21.6928,72.4919 22.1518,71.6089 C22.6108,70.7279 23.4828,69.5309 24.5698,69.5309 C25.6238,69.5309 26.2488,70.3959 26.2488,70.3959 C26.2488,70.3959 26.9008,70.9849 27.1148,70.6329 C27.3208,70.2789 27.0098,69.8589 26.6518,69.5899 C26.3018,69.3189 22.9688,65.7139 17.4678,68.9549 C17.4678,68.9549 16.8428,69.4899 17.0888,69.7819 C17.3248,70.0829 17.7238,69.9459 17.7238,69.9459 M48.2908,62.7239 C48.0728,62.5809 48.0708,62.0289 48.4568,61.6859 C48.8428,61.3479 50.2308,59.8949 52.1888,59.5249 C52.1888,59.5249 53.0068,59.4259 53.2928,59.8089 C53.5658,60.1909 52.7538,60.3149 52.7538,60.3149 C52.7538,60.3149 51.5288,60.7429 52.5378,61.0699 C53.3658,61.3319 57.0708,62.6659 61.4848,62.6659 C65.8988,62.6659 68.3018,61.5789 68.3018,61.5789 C68.3018,61.5789 70.2358,60.9269 69.6268,62.7709 C69.0038,64.6149 66.3728,72.7649 59.8068,72.7649 C51.8448,72.7649 49.9238,62.6659 49.9238,62.6659 C49.9238,62.6659 49.7618,61.7159 49.2268,62.2909 C48.7588,62.7969 48.5048,62.8669 48.2908,62.7239 M54.3508,74.5959 C54.3508,74.5959 53.7918,74.3659 53.6168,74.6759 C53.4338,75.0059 53.4698,75.3839 53.7918,75.6179 C54.1158,75.8659 55.4588,76.7399 59.0858,76.7399 C59.0858,76.7399 59.5888,76.4199 59.5888,76.0999 C59.5888,75.7719 59.3698,75.4749 58.9708,75.5579 C56.2098,76.2069 54.3508,74.5959 54.3508,74.5959" id="Fill-56" fill="#FFFFFF"></path>
                <path d="M37.5927,44.2243384 C37.8787,44.2243384 37.9827,44.2393 38.1687,43.6763 C38.3607,43.1043 39.9617,40.2793 41.6157,39.7333 C41.6157,39.7333 42.1727,39.5903 41.9237,39.3473 C41.6627,39.0873 41.3537,38.6013 41.0377,38.6453 C40.7147,38.6923 37.9297,39.4343 36.9167,43.1233 C36.9167,43.1233 36.7737,44.2243384 37.5927,44.2243384" id="Fill-58" fill="#0B4697"></path>
                <path d="M59.9199,54.6745 C59.9199,54.6745 61.3419,50.3285 65.3789,50.3285 C65.3789,50.3285 67.2659,50.3525 68.3559,52.3755 C68.3559,52.3755 68.5579,52.8175 68.5579,53.3845 C68.5579,53.9705 68.9929,53.8415 69.0289,53.8795 C69.0799,53.9195 69.4769,53.7495 69.4769,52.6295 C69.4769,51.5225 67.9719,49.0985 65.2959,49.0985 C62.6239,49.0985 59.3269,51.7915 59.3269,54.3295 C59.3269,55.6165 59.9199,54.6745 59.9199,54.6745" id="Fill-60" fill="#0B4697"></path>
                <polygon id="Fill-62" fill="#0B4697" points="108.4233 132.0852 108.4233 117.6142 118.3443 117.6142 118.3443 120.0632 111.3453 120.0632 111.3453 123.4882 117.3863 123.4882 117.3863 125.9372 111.3453 125.9372 111.3453 132.0852"></polygon>
                <path d="M120.1606,117.6145 L123.0826,117.6145 L123.0826,125.4515 C123.0826,126.6955 123.1196,127.5035 123.1946,127.8715 C123.3176,128.4645 123.6156,128.9395 124.0856,129.2975 C124.5566,129.6575 125.1996,129.8345 126.0156,129.8345 C126.8446,129.8345 127.4726,129.6655 127.8936,129.3285 C128.3146,128.9875 128.5666,128.5715 128.6496,128.0775 C128.7376,127.5845 128.7796,126.7655 128.7796,125.6215 L128.7796,117.6145 L131.7016,117.6145 L131.7016,125.2155 C131.7016,126.9525 131.6226,128.1805 131.4646,128.8985 C131.3066,129.6155 131.0166,130.2205 130.5916,130.7145 C130.1656,131.2085 129.5976,131.6005 128.8866,131.8935 C128.1766,132.1865 127.2506,132.3335 126.1056,132.3335 C124.7236,132.3335 123.6746,132.1735 122.9616,131.8545 C122.2466,131.5345 121.6836,131.1205 121.2666,130.6105 C120.8536,130.0995 120.5796,129.5645 120.4486,129.0055 C120.2596,128.1765 120.1606,126.9525 120.1606,125.3335 L120.1606,117.6145 Z" id="Fill-64" fill="#0B4697"></path>
                <polygon id="Fill-66" fill="#0B4697" points="134.5219 132.0852 134.5219 117.6142 137.3649 117.6142 143.2869 127.2792 143.2869 117.6142 146.0029 117.6142 146.0029 132.0852 143.0729 132.0852 137.2379 122.6482 137.2379 132.0852"></polygon>
                <path d="M151.7739,120.0627 L151.7739,129.6487 L153.9569,129.6487 C154.7709,129.6487 155.3609,129.6017 155.7219,129.5097 C156.1959,129.3917 156.5889,129.1897 156.9019,128.9067 C157.2159,128.6247 157.4709,128.1587 157.6689,127.5117 C157.8649,126.8627 157.9619,125.9787 157.9619,124.8597 C157.9619,123.7407 157.8649,122.8827 157.6689,122.2847 C157.4709,121.6857 157.1939,121.2177 156.8389,120.8827 C156.4839,120.5467 156.0319,120.3187 155.4859,120.2007 C155.0779,120.1087 154.2769,120.0627 153.0879,120.0627 L151.7739,120.0627 Z M148.8519,117.6147 L154.1939,117.6147 C155.3959,117.6147 156.3149,117.7067 156.9459,117.8907 C157.7949,118.1407 158.5219,118.5857 159.1289,119.2247 C159.7319,119.8627 160.1949,120.6437 160.5109,121.5697 C160.8269,122.4937 160.9849,123.6327 160.9849,124.9897 C160.9849,126.1797 160.8359,127.2077 160.5399,128.0687 C160.1779,129.1217 159.6599,129.9727 158.9889,130.6247 C158.4819,131.1177 157.7979,131.5037 156.9359,131.7807 C156.2909,131.9847 155.4279,132.0847 154.3519,132.0847 L148.8519,132.0847 L148.8519,117.6147 Z" id="Fill-68" fill="#0B4697"></path>
                <path d="M170.3251,126.3605 L168.3291,120.9905 L166.3761,126.3605 L170.3251,126.3605 Z M175.7011,132.0855 L172.5251,132.0855 L171.2611,128.7985 L165.4741,128.7985 L164.2831,132.0855 L161.1821,132.0855 L166.8171,117.6145 L169.9081,117.6145 L175.7011,132.0855 Z" id="Fill-70" fill="#0B4697"></path>
                <path d="M185.6528,126.7658 L188.4868,127.6628 C188.0528,129.2428 187.3308,130.4158 186.3198,131.1838 C185.3088,131.9498 184.0278,132.3328 182.4768,132.3328 C180.5528,132.3328 178.9738,131.6768 177.7388,130.3638 C176.4998,129.0518 175.8828,127.2548 175.8828,124.9778 C175.8828,122.5698 176.5038,120.7008 177.7478,119.3678 C178.9908,118.0358 180.6258,117.3698 182.6528,117.3698 C184.4228,117.3698 185.8608,117.8908 186.9668,118.9378 C187.6248,119.5558 188.1188,120.4438 188.4478,121.6028 L185.5568,122.2928 C185.3838,121.5428 185.0278,120.9508 184.4858,120.5168 C183.9408,120.0818 183.2818,119.8658 182.5058,119.8658 C181.4328,119.8658 180.5648,120.2508 179.8948,121.0208 C179.2258,121.7908 178.8928,123.0368 178.8928,124.7608 C178.8928,126.5898 179.2218,127.8938 179.8798,128.6698 C180.5378,129.4468 181.3928,129.8338 182.4458,129.8338 C183.2228,129.8338 183.8898,129.5888 184.4508,129.0958 C185.0078,128.6018 185.4098,127.8258 185.6528,126.7658" id="Fill-72" fill="#0B4697"></path>
                <mask id="mask-4" fill="white">
                    <use xlink:href="#path-3"></use>
                </mask>
                <g id="Clip-75"></g>
                <polygon id="Fill-74" fill="#0B4697" mask="url(#mask-4)" points="190.54 132.085 193.461 132.085 193.461 117.614 190.54 117.614"></polygon>
                <path d="M200.7797,116.7853 L202.1397,113.8353 L205.2477,113.8353 L202.5347,116.7853 L200.7797,116.7853 Z M198.5687,124.8403 C198.5687,126.4783 198.9437,127.7223 199.7027,128.5663 C200.4567,129.4133 201.4177,129.8343 202.5847,129.8343 C203.7477,129.8343 204.7057,129.4163 205.4517,128.5783 C206.1977,127.7373 206.5727,126.4783 206.5727,124.8003 C206.5727,123.1413 206.2087,121.9053 205.4827,121.0893 C204.7547,120.2723 203.7867,119.8653 202.5847,119.8653 C201.3787,119.8653 200.4107,120.2793 199.6747,121.1043 C198.9377,121.9313 198.5687,123.1753 198.5687,124.8403 L198.5687,124.8403 Z M195.5567,124.9383 C195.5567,123.4653 195.7787,122.2273 196.2167,121.2273 C196.5467,120.4903 196.9957,119.8303 197.5637,119.2443 C198.1337,118.6583 198.7577,118.2233 199.4377,117.9413 C200.3367,117.5593 201.3767,117.3693 202.5567,117.3693 C204.6887,117.3693 206.3927,118.0283 207.6717,119.3513 C208.9527,120.6743 209.5907,122.5143 209.5907,124.8713 C209.5907,127.2073 208.9567,129.0333 207.6897,130.3543 C206.4167,131.6733 204.7187,132.3333 202.5957,132.3333 C200.4427,132.3333 198.7307,131.6773 197.4627,130.3633 C196.1907,129.0523 195.5567,127.2413 195.5567,124.9383 L195.5567,124.9383 Z" id="Fill-76" fill="#0B4697" mask="url(#mask-4)"></path>
                <polygon id="Fill-77" fill="#0B4697" mask="url(#mask-4)" points="211.7207 132.0852 211.7207 117.6142 214.5637 117.6142 220.4867 127.2792 220.4867 117.6142 223.1997 117.6142 223.1997 132.0852 220.2717 132.0852 214.4347 122.6482 214.4347 132.0852"></polygon>
                <polygon id="Fill-78" fill="#0B4697" mask="url(#mask-4)" points="108.4233 155.3986 108.4233 140.9276 111.3453 140.9276 111.3453 146.6256 117.0703 146.6256 117.0703 140.9276 119.9923 140.9276 119.9923 155.3986 117.0703 155.3986 117.0703 149.0726 111.3453 149.0726 111.3453 155.3986"></polygon>
                <path d="M125.1953,148.1535 C125.1953,149.7925 125.5743,151.0365 126.3313,151.8805 C127.0883,152.7265 128.0493,153.1485 129.2143,153.1485 C130.3783,153.1485 131.3333,152.7295 132.0813,151.8905 C132.8283,151.0515 133.2013,149.7925 133.2013,148.1145 C133.2013,146.4565 132.8383,145.2185 132.1093,144.4025 C131.3833,143.5875 130.4183,143.1785 129.2143,143.1785 C128.0093,143.1785 127.0373,143.5925 126.3003,144.4185 C125.5643,145.2455 125.1953,146.4885 125.1953,148.1535 M122.1853,148.2525 C122.1853,146.7785 122.4053,145.5415 122.8483,144.5415 C123.1773,143.8035 123.6253,143.1435 124.1953,142.5575 C124.7633,141.9715 125.3883,141.5385 126.0643,141.2555 C126.9673,140.8735 128.0083,140.6825 129.1833,140.6825 C131.3153,140.6825 133.0213,141.3425 134.3023,142.6655 C135.5823,143.9885 136.2223,145.8285 136.2223,148.1835 C136.2223,150.5195 135.5883,152.3475 134.3163,153.6685 C133.0483,154.9865 131.3503,155.6465 129.2223,155.6465 C127.0733,155.6465 125.3623,154.9915 124.0903,153.6765 C122.8223,152.3655 122.1853,150.5555 122.1853,148.2525" id="Fill-79" fill="#0B4697" mask="url(#mask-4)"></path>
                <path d="M137.5053,150.6916 L140.3483,150.4156 C140.5193,151.3696 140.8683,152.0696 141.3923,152.5156 C141.9143,152.9636 142.6213,153.1876 143.5063,153.1876 C144.4503,153.1876 145.1583,152.9906 145.6343,152.5906 C146.1123,152.1946 146.3493,151.7266 146.3493,151.1936 C146.3493,150.8516 146.2513,150.5616 146.0513,150.3206 C145.8493,150.0816 145.4983,149.8716 145.0003,149.6936 C144.6563,149.5746 143.8753,149.3646 142.6603,149.0616 C141.0943,148.6736 139.9923,148.1976 139.3613,147.6306 C138.4753,146.8356 138.0293,145.8636 138.0293,144.7186 C138.0293,143.9816 138.2383,143.2936 138.6573,142.6526 C139.0763,142.0096 139.6773,141.5196 140.4623,141.1846 C141.2493,140.8486 142.1993,140.6826 143.3093,140.6826 C145.1253,140.6826 146.4943,141.0796 147.4113,141.8766 C148.3303,142.6716 148.8113,143.7356 148.8593,145.0656 L145.9373,145.1926 C145.8103,144.4486 145.5433,143.9166 145.1323,143.5886 C144.7223,143.2636 144.1033,143.0996 143.2803,143.0996 C142.4343,143.0996 141.7673,143.2756 141.2893,143.6246 C140.9773,143.8476 140.8223,144.1456 140.8223,144.5216 C140.8223,144.8636 140.9663,145.1576 141.2563,145.4006 C141.6253,145.7106 142.5203,146.0326 143.9413,146.3686 C145.3623,146.7036 146.4153,147.0496 147.0953,147.4106 C147.7773,147.7676 148.3113,148.2586 148.6963,148.8796 C149.0803,149.5026 149.2713,150.2706 149.2713,151.1846 C149.2713,152.0136 149.0433,152.7906 148.5823,153.5146 C148.1223,154.2386 147.4683,154.7756 146.6263,155.1286 C145.7833,155.4796 144.7353,155.6556 143.4783,155.6556 C141.6493,155.6556 140.2433,155.2346 139.2653,154.3876 C138.2813,153.5436 137.6983,152.3106 137.5053,150.6916" id="Fill-80" fill="#0B4697" mask="url(#mask-4)"></path>
                <path d="M154.3735,143.3762 L154.3735,147.4822 L155.9705,147.4822 C157.1225,147.4822 157.8915,147.4072 158.2825,147.2572 C158.6685,147.1052 158.9755,146.8682 159.1925,146.5452 C159.4145,146.2232 159.5235,145.8482 159.5235,145.4202 C159.5235,144.8942 159.3705,144.4602 159.0605,144.1172 C158.7515,143.7752 158.3615,143.5612 157.8875,143.4752 C157.5375,143.4092 156.8365,143.3762 155.7845,143.3762 L154.3735,143.3762 Z M151.4525,155.3982 L151.4525,140.9282 L156.1395,140.9282 C157.9165,140.9282 159.0745,141.0002 159.6145,141.1462 C160.4425,141.3622 161.1365,141.8362 161.6955,142.5632 C162.2545,143.2902 162.5355,144.2302 162.5355,145.3812 C162.5355,146.2702 162.3735,147.0152 162.0515,147.6202 C161.7285,148.2262 161.3205,148.7022 160.8225,149.0482 C160.3245,149.3932 159.8225,149.6212 159.3095,149.7332 C158.6095,149.8712 157.6005,149.9412 156.2775,149.9412 L154.3735,149.9412 L154.3735,155.3982 L151.4525,155.3982 Z" id="Fill-81" fill="#0B4697" mask="url(#mask-4)"></path>
                <polygon id="Fill-82" fill="#0B4697" mask="url(#mask-4)" points="164.315 155.399 167.237 155.399 167.237 140.928 164.315 140.928"></polygon>
                <polygon id="Fill-83" fill="#0B4697" mask="url(#mask-4)" points="173.0229 155.3986 173.0229 143.3766 168.7299 143.3766 168.7299 140.9276 180.2309 140.9276 180.2309 143.3766 175.9449 143.3766 175.9449 155.3986"></polygon>
                <path d="M188.0483,149.674 L186.0523,144.304 L184.1003,149.674 L188.0483,149.674 Z M193.4253,155.399 L190.2493,155.399 L188.9853,152.112 L183.1983,152.112 L182.0073,155.399 L178.9063,155.399 L184.5413,140.928 L187.6313,140.928 L193.4253,155.399 Z" id="Fill-84" fill="#0B4697" mask="url(#mask-4)"></path>
                <polygon id="Fill-85" fill="#0B4697" mask="url(#mask-4)" points="194.8706 155.3986 194.8706 141.0466 197.7926 141.0466 197.7926 152.9616 205.0576 152.9616 205.0576 155.3986"></polygon>
                <path d="M214.2734,148.1623 C214.2734,149.8003 214.6514,151.0443 215.4074,151.8893 C216.1644,152.7353 217.1254,153.1563 218.2904,153.1563 C219.4544,153.1563 220.4114,152.7373 221.1564,151.8993 C221.9044,151.0593 222.2774,149.8003 222.2774,148.1223 C222.2774,146.4643 221.9164,145.2263 221.1874,144.4113 C220.4594,143.5953 219.4944,143.1863 218.2904,143.1863 C217.0864,143.1863 216.1164,143.6013 215.3784,144.4273 C214.6424,145.2533 214.2734,146.4973 214.2734,148.1623 M211.2624,148.2613 C211.2624,146.7863 211.4834,145.5493 211.9224,144.5493 C212.2514,143.8123 212.7034,143.1513 213.2714,142.5663 C213.8394,141.9803 214.4624,141.5463 215.1424,141.2633 C216.0414,140.8823 217.0814,140.6903 218.2614,140.6903 C220.3934,140.6903 222.1004,141.3503 223.3794,142.6743 C224.6574,143.9963 225.2984,145.8373 225.2984,148.1923 C225.2984,150.5283 224.6624,152.3563 223.3944,153.6763 C222.1224,154.9943 220.4234,155.6553 218.3004,155.6553 C216.1474,155.6553 214.4364,154.9993 213.1684,153.6853 C211.8964,152.3733 211.2624,150.5633 211.2624,148.2613" id="Fill-86" fill="#0B4697" mask="url(#mask-4)"></path>
                <path d="M230.3388,147.0568 L232.5018,147.0568 C233.9018,147.0568 234.7758,146.9968 235.1248,146.8778 C235.4738,146.7598 235.7478,146.5568 235.9458,146.2668 C236.1428,145.9778 236.2418,145.6158 236.2418,145.1808 C236.2418,144.6948 236.1098,144.3008 235.8538,144.0028 C235.5928,143.7028 235.2258,143.5138 234.7528,143.4348 C234.5158,143.4028 233.8048,143.3838 232.6198,143.3838 L230.3388,143.3838 L230.3388,147.0568 Z M227.4168,155.4078 L227.4168,140.9368 L233.5678,140.9368 C235.1118,140.9368 236.2368,141.0678 236.9378,141.3268 C237.6368,141.5878 238.1978,142.0488 238.6218,142.7128 C239.0408,143.3778 239.2538,144.1388 239.2538,144.9938 C239.2538,146.0798 238.9328,146.9778 238.2948,147.6838 C237.6568,148.3928 236.7028,148.8368 235.4328,149.0218 C236.0638,149.3908 236.5838,149.7938 236.9988,150.2348 C237.4088,150.6758 237.9618,151.4578 238.6618,152.5838 L240.4268,155.4078 L236.9328,155.4078 L234.8198,152.2588 C234.0698,151.1338 233.5568,150.4258 233.2808,150.1318 C233.0048,149.8398 232.7108,149.6378 232.4008,149.5308 C232.0918,149.4208 231.6028,149.3668 230.9308,149.3668 L230.3388,149.3668 L230.3388,155.4078 L227.4168,155.4078 Z" id="Fill-87" fill="#0B4697" mask="url(#mask-4)"></path>
                <polygon id="Fill-88" fill="#0B4697" mask="url(#mask-4)" points="244.9345 155.4074 244.9345 143.3844 240.6405 143.3844 240.6405 140.9364 252.1405 140.9364 252.1405 143.3844 247.8565 143.3844 247.8565 155.4074"></polygon>
                <path d="M255.852,148.1623 C255.852,149.8003 256.229,151.0443 256.986,151.8893 C257.743,152.7353 258.704,153.1563 259.868,153.1563 C261.033,153.1563 261.991,152.7373 262.735,151.8993 C263.483,151.0593 263.856,149.8003 263.856,148.1223 C263.856,146.4643 263.495,145.2263 262.769,144.4113 C262.038,143.5953 261.072,143.1863 259.868,143.1863 C258.664,143.1863 257.694,143.6013 256.957,144.4273 C256.22,145.2533 255.852,146.4973 255.852,148.1623 M252.84,148.2613 C252.84,146.7863 253.062,145.5493 253.502,144.5493 C253.831,143.8123 254.282,143.1513 254.85,142.5663 C255.418,141.9803 256.043,141.5463 256.721,141.2633 C257.623,140.8823 258.662,140.6903 259.84,140.6903 C261.972,140.6903 263.678,141.3503 264.957,142.6743 C266.236,143.9963 266.876,145.8373 266.876,148.1923 C266.876,150.5283 266.243,152.3563 264.973,153.6763 C263.703,154.9943 262.005,155.6553 259.879,155.6553 C257.728,155.6553 256.017,154.9993 254.747,153.6853 C253.476,152.3733 252.84,150.5633 252.84,148.2613" id="Fill-89" fill="#0B4697" mask="url(#mask-4)"></path>
                <path d="M271.9194,143.384 L271.9194,147.49 L273.5164,147.49 C274.6704,147.49 275.4374,147.416 275.8284,147.265 C276.2144,147.113 276.5214,146.877 276.7414,146.554 C276.9624,146.232 277.0694,145.857 277.0694,145.429 C277.0694,144.903 276.9184,144.468 276.6064,144.126 C276.3004,143.783 275.9074,143.569 275.4334,143.483 C275.0824,143.417 274.3824,143.384 273.3304,143.384 L271.9194,143.384 Z M268.9984,155.407 L268.9984,140.937 L273.6854,140.937 C275.4624,140.937 276.6204,141.009 277.1604,141.154 C277.9884,141.371 278.6844,141.845 279.2414,142.571 C279.8034,143.299 280.0814,144.238 280.0814,145.389 C280.0814,146.278 279.9214,147.024 279.5974,147.629 C279.2764,148.235 278.8664,148.71 278.3704,149.057 C277.8734,149.402 277.3684,149.629 276.8554,149.741 C276.1574,149.88 275.1464,149.949 273.8254,149.949 L271.9194,149.949 L271.9194,155.407 L268.9984,155.407 Z" id="Fill-90" fill="#0B4697" mask="url(#mask-4)"></path>
                <path d="M285.6225,140.1076 L286.9845,137.1576 L290.0925,137.1576 L287.3795,140.1076 L285.6225,140.1076 Z M281.9115,155.4076 L281.9115,140.9366 L292.6395,140.9366 L292.6395,143.3836 L284.8325,143.3836 L284.8325,146.5936 L292.0975,146.5936 L292.0975,149.0306 L284.8325,149.0306 L284.8325,152.9696 L292.9155,152.9696 L292.9155,155.4076 L281.9115,155.4076 Z" id="Fill-91" fill="#0B4697" mask="url(#mask-4)"></path>
                <path d="M298.0859,143.384 L298.0859,152.97 L300.2689,152.97 C301.0829,152.97 301.6719,152.924 302.0349,152.832 C302.5079,152.714 302.9009,152.512 303.2139,152.229 C303.5279,151.946 303.7829,151.481 303.9799,150.833 C304.1769,150.185 304.2739,149.301 304.2739,148.182 C304.2739,147.064 304.1769,146.205 303.9799,145.607 C303.7829,145.007 303.5059,144.54 303.1509,144.205 C302.7949,143.869 302.3429,143.641 301.7969,143.523 C301.3889,143.43 300.5889,143.384 299.3999,143.384 L298.0859,143.384 Z M295.1649,140.937 L300.5049,140.937 C301.7079,140.937 302.6269,141.029 303.2579,141.213 C304.1069,141.463 304.8339,141.908 305.4409,142.546 C306.0439,143.185 306.5069,143.966 306.8229,144.892 C307.1389,145.815 307.2959,146.955 307.2959,148.311 C307.2959,149.502 307.1479,150.529 306.8509,151.391 C306.4889,152.444 305.9719,153.295 305.2999,153.947 C304.7939,154.44 304.1099,154.826 303.2479,155.103 C302.6019,155.306 301.7409,155.407 300.6639,155.407 L295.1649,155.407 L295.1649,140.937 Z" id="Fill-92" fill="#0B4697" mask="url(#mask-4)"></path>
                <polygon id="Fill-93" fill="#0B4697" mask="url(#mask-4)" points="309.495 155.408 312.417 155.408 312.417 140.937 309.495 140.937"></polygon>
                <path d="M324.3178,150.0881 L327.1548,150.9851 C326.7198,152.5651 325.9968,153.7371 324.9878,154.5061 C323.9758,155.2721 322.6948,155.6551 321.1418,155.6551 C319.2198,155.6551 317.6408,154.9991 316.4038,153.6861 C315.1678,152.3731 314.5478,150.5771 314.5478,148.3001 C314.5478,145.8921 315.1698,144.0231 316.4158,142.6901 C317.6568,141.3581 319.2908,140.6911 321.3178,140.6911 C323.0898,140.6911 324.5268,141.2131 325.6318,142.2591 C326.2908,142.8771 326.7868,143.7661 327.1148,144.9241 L324.2218,145.6151 C324.0498,144.8651 323.6928,144.2731 323.1518,143.8381 C322.6078,143.4041 321.9468,143.1871 321.1708,143.1871 C320.0998,143.1871 319.2298,143.5731 318.5598,144.3431 C317.8938,145.1131 317.5598,146.3591 317.5598,148.0831 C317.5598,149.9121 317.8888,151.2151 318.5468,151.9911 C319.2058,152.7691 320.0608,153.1561 321.1138,153.1561 C321.8898,153.1561 322.5548,152.9101 323.1168,152.4171 C323.6728,151.9241 324.0768,151.1481 324.3178,150.0881" id="Fill-94" fill="#0B4697" mask="url(#mask-4)"></path>
                <path d="M331.5874,148.1623 C331.5874,149.8003 331.9654,151.0443 332.7244,151.8893 C333.4784,152.7353 334.4394,153.1563 335.6074,153.1563 C336.7694,153.1563 337.7254,152.7373 338.4734,151.8993 C339.2214,151.0593 339.5944,149.8003 339.5944,148.1223 C339.5944,146.4643 339.2284,145.2263 338.5024,144.4113 C337.7754,143.5953 336.8084,143.1863 335.6074,143.1863 C334.4004,143.1863 333.4304,143.6013 332.6924,144.4273 C331.9564,145.2533 331.5874,146.4973 331.5874,148.1623 M328.5774,148.2613 C328.5774,146.7863 328.7974,145.5493 329.2384,144.5493 C329.5674,143.8123 330.0154,143.1513 330.5874,142.5663 C331.1554,141.9803 331.7784,141.5463 332.4564,141.2633 C333.3584,140.8823 334.3984,140.6903 335.5754,140.6903 C337.7074,140.6903 339.4124,141.3503 340.6944,142.6743 C341.9744,143.9963 342.6124,145.8373 342.6124,148.1923 C342.6124,150.5283 341.9784,152.3563 340.7084,153.6763 C339.4394,154.9943 337.7404,155.6553 335.6144,155.6553 C333.4634,155.6553 331.7524,154.9993 330.4824,153.6853 C329.2124,152.3733 328.5774,150.5633 328.5774,148.2613" id="Fill-95" fill="#0B4697" mask="url(#mask-4)"></path>
                <polygon id="Fill-96" fill="#0B4697" mask="url(#mask-4)" points="350.018 155.408 352.94 155.408 352.94 140.937 350.018 140.937"></polygon>
                <polygon id="Fill-97" fill="#0B4697" mask="url(#mask-4)" points="355.6421 155.4074 355.6421 140.9364 358.4851 140.9364 364.4081 150.6004 364.4081 140.9364 367.1221 140.9364 367.1221 155.4074 364.1901 155.4074 358.3581 145.9704 358.3581 155.4074"></polygon>
                <polygon id="Fill-98" fill="#0B4697" mask="url(#mask-4)" points="369.9878 155.4074 369.9878 140.9364 379.9098 140.9364 379.9098 143.3844 372.9098 143.3844 372.9098 146.8104 378.9508 146.8104 378.9508 149.2594 372.9098 149.2594 372.9098 155.4074"></polygon>
                <path d="M388.5249,149.6818 L386.5289,144.3128 L384.5769,149.6818 L388.5249,149.6818 Z M393.9019,155.4078 L390.7249,155.4078 L389.4619,152.1208 L383.6749,152.1208 L382.4849,155.4078 L379.3829,155.4078 L385.0179,140.9368 L388.1089,140.9368 L393.9019,155.4078 Z" id="Fill-99" fill="#0B4697" mask="url(#mask-4)"></path>
                <polygon id="Fill-100" fill="#0B4697" mask="url(#mask-4)" points="395.3159 155.4074 395.3159 140.9364 398.1589 140.9364 404.0819 150.6004 404.0819 140.9364 406.7949 140.9364 406.7949 155.4074 403.8649 155.4074 398.0299 145.9704 398.0299 155.4074"></polygon>
                <polygon id="Fill-101" fill="#0B4697" mask="url(#mask-4)" points="412.7417 155.4074 412.7417 143.3844 408.4487 143.3844 408.4487 140.9364 419.9477 140.9364 419.9477 143.3844 415.6637 143.3844 415.6637 155.4074"></polygon>
                <polygon id="Fill-102" fill="#0B4697" mask="url(#mask-4)" points="421.469 155.408 424.391 155.408 424.391 140.937 421.469 140.937"></polygon>
                <polygon id="Fill-103" fill="#0B4697" mask="url(#mask-4)" points="427.1206 155.4074 427.1206 141.0544 430.0426 141.0544 430.0426 152.9694 437.3076 152.9694 437.3076 155.4074"></polygon>
            </g>
        </g>
    </g>
</svg>